<svg version="1.2" xmlns="http://www.w3.org/2000/svg" viewBox="0 0 365 350" width="350" height="350"><style>.s0{fill:#FFFFFF}</style><path fill-rule="evenodd" class="s0" d="m364.5 10.3c0.4 5.3-3.4 10.2-8.7 11l-49.9 8.5l-78.6 201.5l25.2 19.8q0 0 0.1 0.1q0 0 0.1 0q0 0.1 0 0.1q0.1 0.1 0.1 0.1c0 0 0 0.1 0.1 0.1q0 0 0 0q0 0 0 0.1q0 0 0 0q0.1 0 0.1 0c11.8 9.1 17.5 23.2 14.3 36.1q0 0 0 0.1q-0.1 0-0.1 0.1q0 0 0 0.1q0 0-0.1 0.1c-4.2 9.9-11 16.3-19.8 19.4c9.3 2.1 16.4 10.5 16.4 20.4c0 11.5-9.4 20.9-20.9 20.9c-11.4 0-20.8-9.4-20.8-20.9c0-7.8 4.3-14.6 10.7-18.1l-176.4 0.5c5.9 3.7 9.8 10.2 9.8 17.6c0 11.5-9.4 20.9-20.9 20.9c-11.4 0-20.8-9.4-20.8-20.9c0-7.3 3.9-13.8 9.7-17.5h-15.6h-0.1c-5.6 0.1-10.3-4.6-10.4-10.3c0-5.6 4.7-10.3 10.4-10.3l214.2-0.6h0.1q0.3 0 0.6 0q0 0 0 0q0 0 0 0q0 0 0 0q0 0 0 0c5.6 0.3 8.9-0.5 10.8-1.7c1.9-1.2 2.7-2.7 3.2-4.8c0.9-3.7-0.7-10.3-7.2-15.2q0 0-0.1 0q-0.1-0.1-0.1-0.1q0 0-0.1 0q0 0 0-0.1q0 0 0 0q0 0 0 0l-35.6-28l-179.6-14.3c-4.9-0.4-8.9-4.2-9.4-9l-13.9-115c-0.4-2.9 0.5-5.8 2.4-8c1.9-2.2 4.6-3.5 7.5-3.6l251.9-6.3l25.8-66.1q0-0.1 0-0.1q0 0 0 0q0 0 0 0q0 0 0 0c1.3-3.3 4.3-5.7 7.8-6.4l55.7-9.5q0.8-0.1 1.7-0.1c5.3-0.1 9.9 4.1 10.4 9.4zm-109 88.7c0 0-33.4 0.9-33.4 0.9v36.3h18.9zm-75.5 1.9v35.3h34.9v-36.2zm-42.1 1.1v34.2h34.9v-35.1zm-42.2 1.1v33.1h34.9v-34c0 0-34.9 0.9-34.9 0.9zm-42.1 1v32.1h34.9v-33zm-36.6 0.9l3.8 31.3h25.6v-32c0 0-29.4 0.7-29.4 0.7zm4.7 38.5c0 0 3.9 32.6 3.9 32.6h20.8v-32.6zm31.9 32.6h34.9v-32.6h-34.9zm42.2 0h34.9v-32.7h-34.9zm42.1 0h34.9v-32.7h-34.9zm42.1 0h34.9v-32.6h-34.9zm42.1 0h3.4l12.8-32.7h-16.2zm-192.9 29.3l17.2 1.4v-23.5h-19.9c0 0 2.7 22.1 2.7 22.1zm24.4 1.9l34.9 2.8v-26.8h-34.9c0 0 0 24 0 24zm42.2 3.4l34.9 2.7v-30.1h-34.9zm42.1 3.4l34.9 2.7v-33.5h-34.9c0 0 0 30.8 0 30.8zm42.1 3.3l25.5 2c1 0.1 1.9 0.4 2.8 0.8l6.6-17v-19.9h-34.9c0 0 0 34.1 0 34.1zm42.1-32.6l0.6-1.5h-0.6zm-189 143.3c0 6.8 5.4 12.2 12.2 12.2c6.8 0 12.3-5.4 12.3-12.2c0-6.8-5.5-12.3-12.3-12.3c-6.8 0-12.2 5.5-12.2 12.3zm197.5 0c0 6.8 5.5 12.2 12.3 12.2c6.8 0 12.2-5.4 12.2-12.2c0-6.8-5.4-12.3-12.2-12.3c-6.8 0-12.3 5.5-12.3 12.3zm-178.6 0.2c0 3.7-3 6.6-6.7 6.6c-3.7 0-6.7-2.9-6.7-6.6c0-3.7 3-6.7 6.7-6.7c3.7 0 6.7 3 6.7 6.7zm197.5 0c0 3.7-2.9 6.6-6.6 6.6c-3.7 0-6.7-2.9-6.7-6.6c0-3.7 3-6.7 6.7-6.7c3.7 0 6.6 3 6.6 6.7z" /></svg>